# xmcd
#
# Track frame offsets:
#	150
#	16982
#	39897
#	56360
#	78055
#	88780
#	97720
#	110555
#	124747
#	137475
#	147120
#	156510
#	162090
#	180860
#
# Disc length: 2747 seconds
#
# Revision: 1
# Processed by: cddbd v1.5.1PL0 Copyright (c) Steve Scherf et al.
# Submitted via: CDex 1.50Beta5
#
DISCID=9c0ab90e
DTITLE=TARAKO - My Dream〜On Airが待てなくて〜
DYEAR=1997
DGENRE=Game
TTITLE0=TARAKO/On Airが待てなくて
TTITLE1=横山智佐/いつか忘れた あの日の瞳
TTITLE2=Head up and Cool down
TTITLE3=Mind of Sine
TTITLE4=ゲエムセンター
TTITLE5=演劇のテーマ#4
TTITLE6=Main Theme#1
TTITLE7=Main Theme#3
TTITLE8=System_MD
TTITLE9=夢に向かって
TTITLE10=In The Summer
TTITLE11=VAL Project/恋はパパンパン
TTITLE12=VAL Project/One Girl/Three Guys
TTITLE13=西村朋紘/いつか忘れた あの日の瞳
EXTD=
EXTT0=
EXTT1=
EXTT2=
EXTT3=
EXTT4=
EXTT5=
EXTT6=
EXTT7=
EXTT8=
EXTT9=
EXTT10=
EXTT11=
EXTT12=
EXTT13=
PLAYORDER=
